<svg width="40" height="40" viewBox="0 0 40 40" fill="none" xmlns="http://www.w3.org/2000/svg">
<g clip-path="url(#clip0_78_2222)">
<mask id="mask0_78_2222" style="mask-type:luminance" maskUnits="userSpaceOnUse" x="0" y="0" width="40" height="40">
<path d="M0 0H40V40H0V0Z" fill="white"/>
</mask>
<g mask="url(#mask0_78_2222)">
<path d="M22.9601 2.92C22.9601 4.53267 21.6528 5.84 20.0401 5.84C18.4275 5.84 17.1201 4.53267 17.1201 2.92C17.1201 1.30733 18.4275 0 20.0401 0C21.6528 0 22.9601 1.30733 22.9601 2.92Z" fill="#FFF9F9"/>
<path fill-rule="evenodd" clip-rule="evenodd" d="M20.04 5.84009H15.04C10.6514 5.84009 6.9283 8.69001 5.62058 12.6401H5.44C2.43557 12.6401 0 15.0757 0 18.0801C0 21.0845 2.43557 23.5201 5.44 23.5201H5.56913C6.82825 27.553 10.5923 30.4801 15.04 30.4801H25.04C29.4877 30.4801 33.2518 27.553 34.5109 23.5201H34.56C37.5644 23.5201 40 21.0845 40 18.0801C40 15.0757 37.5644 12.6401 34.56 12.6401H34.4594C33.1517 8.69001 29.4286 5.84009 25.04 5.84009H20.04ZM29.7349 17.4401C29.7349 19.491 28.0722 21.1538 26.0211 21.1538C23.9701 21.1538 22.3074 19.491 22.3074 17.4401C22.3074 15.389 23.9701 13.7263 26.0211 13.7263C28.0722 13.7263 29.7349 15.389 29.7349 17.4401ZM13.9537 21.1538C16.0047 21.1538 17.6674 19.491 17.6674 17.4401C17.6674 15.389 16.0047 13.7263 13.9537 13.7263C11.9027 13.7263 10.24 15.389 10.24 17.4401C10.24 19.491 11.9027 21.1538 13.9537 21.1538Z" fill="#FFF9F9"/>
<path d="M7.19312 39.9999C9.58979 35.3442 14.443 32.1599 20.0399 32.1599C25.6369 32.1599 30.4901 35.3442 32.8867 39.9999H7.19312Z" fill="#FFF9F9"/>
</g>
</g>
<defs>
<clipPath id="clip0_78_2222">
<rect width="40" height="40" fill="white"/>
</clipPath>
</defs>
</svg>
