<svg width="40" height="40" viewBox="0 0 40 40" fill="none" xmlns="http://www.w3.org/2000/svg">
<g clip-path="url(#clip0_78_2217)">
<path d="M29.8047 11.1636L26.2993 18.3521C26.3971 18.645 26.4708 18.9483 26.5159 19.2604C26.7136 20.6268 26.3672 21.9884 25.5407 23.0943C24.5699 24.3934 23.0212 25.1692 21.3974 25.1692C20.2759 25.1692 19.2071 24.8135 18.3066 24.1406C17.2006 23.3143 16.4828 22.1067 16.2851 20.7403C16.0873 19.3739 16.4338 18.0125 17.2602 16.9065C18.2311 15.6073 19.7799 14.8315 21.4034 14.8315C21.6437 14.8315 21.8809 14.8511 22.1153 14.8834L27.8098 9.67317C28.259 9.26204 28.9368 9.22892 29.4239 9.5929C29.9116 9.95723 30.0713 10.6164 29.8047 11.1636ZM21.4007 1.40063C17.4607 1.40063 13.6952 2.61765 10.5116 4.92003C9.56631 5.60373 9.35424 6.92416 10.0378 7.86945C10.7215 8.81474 12.0417 9.02715 12.9872 8.34328C15.4459 6.56524 18.3553 5.6252 21.4007 5.6252C29.3269 5.6252 35.7755 12.0737 35.7755 20C35.7755 27.9263 29.3269 34.3749 21.4007 34.3749C13.6503 34.3749 7.31665 28.2085 7.03918 20.5245L8.61663 20.7931C8.71126 20.8091 8.80606 20.8171 8.90035 20.8171C8.90694 20.8171 8.91336 20.8171 8.91978 20.8171C9.84564 20.8083 10.5934 20.0551 10.5934 19.1272C10.5934 18.8817 10.541 18.6483 10.4467 18.4378L7.94222 11.6822C7.73234 11.1161 7.23638 10.7051 6.64122 10.6038C6.04624 10.503 5.44212 10.7264 5.05684 11.1913L0.388874 16.8218C0.00359418 17.2865 -0.104386 17.9215 0.105322 18.4875C0.315198 19.0537 0.811161 19.4647 1.40632 19.5661L2.81107 19.8052C2.80515 19.8694 2.80127 19.9343 2.80127 20.0002C2.80127 30.2559 11.1449 38.5996 21.4007 38.5996C31.6564 38.5996 40 30.2559 40 20.0002C40 9.74448 31.6564 1.40063 21.4007 1.40063Z" fill="#FFF9F9"/>
</g>
<defs>
<clipPath id="clip0_78_2217">
<rect width="40" height="40" fill="white"/>
</clipPath>
</defs>
</svg>
