<svg width="40" height="40" viewBox="0 0 40 40" fill="none" xmlns="http://www.w3.org/2000/svg">
<g clip-path="url(#clip0_78_2202)">
<path d="M39.5665 8.02171L34.6411 12.9471H30.9542H28.9349L28.0347 13.8472L24.6108 17.2712L22.4773 19.4046L20.6733 21.2087C20.4034 21.4785 20.0499 21.6135 19.6962 21.6135C19.3296 21.6135 18.9626 21.4683 18.6894 21.1782C18.1707 20.6273 18.2251 19.7485 18.76 19.2134L22.3493 15.6241L22.6242 15.3492L26.063 11.9104L26.9805 10.9929V9.02559V5.28666L28.6835 3.58364L31.9059 0.361306C31.9485 0.318707 31.9932 0.281504 32.0389 0.246808C32.0499 0.238519 32.0607 0.230423 32.0718 0.22252C32.1175 0.190137 32.1642 0.16026 32.212 0.135201C32.2158 0.133081 32.2199 0.131731 32.2239 0.129611C32.2692 0.106673 32.3153 0.0873969 32.3619 0.070627C32.3737 0.0663863 32.3853 0.0621456 32.397 0.0582905C32.4466 0.0422916 32.4967 0.0287985 32.5472 0.0195461C32.5541 0.0181968 32.5613 0.0178113 32.5682 0.016462C32.6137 0.00894441 32.6592 0.00431821 32.7049 0.00200512C32.7166 0.00142684 32.7282 0.000655811 32.7399 0.000270295C32.7908 -0.000693496 32.8415 0.000848569 32.8918 0.00605304C32.9001 0.00701683 32.9084 0.00855889 32.9167 0.00952268C32.9603 0.0149199 33.0036 0.022823 33.0462 0.0328464C33.0582 0.0357378 33.0703 0.0382436 33.0823 0.0413278C33.1311 0.0542426 33.1792 0.0694704 33.2259 0.0879752C33.2328 0.0906738 33.2394 0.0941435 33.2461 0.0968421C33.2872 0.113998 33.3271 0.133466 33.366 0.154862C33.3772 0.161031 33.3884 0.167006 33.3992 0.173367C33.4427 0.199004 33.4851 0.226568 33.5254 0.257217C33.5303 0.260879 33.5347 0.26512 33.5393 0.268782C33.5752 0.297118 33.6093 0.327574 33.6421 0.359957C33.6513 0.369017 33.6606 0.378076 33.6694 0.387521C33.7047 0.424724 33.7384 0.463468 33.7691 0.505296C33.7716 0.508766 33.7737 0.512621 33.7764 0.516284C33.8044 0.555414 33.8294 0.596664 33.8527 0.639456C33.8591 0.651214 33.8655 0.662973 33.8714 0.675116C33.8951 0.722535 33.9171 0.771495 33.9347 0.823155C33.9354 0.82566 33.936 0.828166 33.9368 0.830672C33.9534 0.880211 33.9659 0.93187 33.9761 0.984879C33.9788 0.99895 33.9813 1.01321 33.9836 1.02748C33.9925 1.08415 33.9992 1.14198 34.0006 1.20231L34.0995 5.82773L34.1983 5.82985L38.7247 5.92662C38.9689 5.93182 39.1829 6.00507 39.362 6.12053C39.4304 6.16467 39.4953 6.21286 39.5526 6.26876C39.6353 6.34972 39.7058 6.44167 39.7625 6.54132C39.8192 6.64098 39.8624 6.74815 39.8903 6.85937C39.9884 7.24913 39.9009 7.68746 39.5665 8.02171ZM19.4524 9.67981C13.4198 9.67981 8.51179 14.5878 8.51179 20.6204C8.51179 26.6529 13.4198 31.5609 19.4524 31.5609C25.4849 31.5609 30.3929 26.6529 30.3929 20.6204C30.3929 19.1323 30.0916 17.7144 29.5506 16.4206L25.5969 20.3742C25.6002 20.4563 25.606 20.5377 25.606 20.6206C25.606 24.0139 22.8455 26.7744 19.4522 26.7744C16.0589 26.7744 13.2984 24.0137 13.2984 20.6206C13.2984 17.2392 16.04 14.487 19.4167 14.4677L23.4475 10.437C22.2094 9.9489 20.8618 9.67981 19.4524 9.67981ZM36.6855 14.9916C36.1433 15.5339 35.4079 15.8384 34.6409 15.8384H32.4288C32.9805 17.3294 33.2843 18.9397 33.2843 20.6202C33.2843 28.2472 27.0794 34.4521 19.4524 34.4521C11.8253 34.4521 5.62042 28.2472 5.62042 20.6202C5.62042 12.9931 11.8253 6.78825 19.4524 6.78825C21.0788 6.78825 22.639 7.07334 24.0892 7.59224V5.28666C24.0892 4.51987 24.3937 3.7843 24.9359 3.24208L25.8506 2.32744C23.8465 1.62445 21.6936 1.24028 19.4522 1.24028C8.76604 1.24048 0.0722656 9.93425 0.0722656 20.6204C0.0722656 31.3065 8.76623 40.0005 19.4524 40.0005C30.1385 40.0005 38.8324 31.3065 38.8324 20.6204C38.8324 18.2992 38.4207 16.0728 37.6688 14.0086L36.6855 14.9916Z" fill="#FFF9F9"/>
</g>
<defs>
<clipPath id="clip0_78_2202">
<rect width="40" height="40" fill="white"/>
</clipPath>
</defs>
</svg>
