<svg width="1203" height="284" viewBox="0 0 1203 284" fill="none" xmlns="http://www.w3.org/2000/svg">
<g clip-path="url(#clip0_78_2046)">
<path d="M91.6617 138.056C79.9602 138.056 70.599 141.413 63.5348 148.127C56.4705 154.84 52.9601 163.694 52.9601 174.731V280.056H0V174.353C0 161.722 2.29696 150.015 6.93422 139.231C11.5281 128.446 17.9423 119.173 26.09 111.41C34.2377 103.647 43.8589 97.6041 54.997 93.282C66.1351 88.9599 78.3567 86.7778 91.6617 86.7778C104.967 86.7778 116.798 88.8759 127.936 93.0722C139.074 97.2684 148.566 103.185 156.453 110.822C164.601 103.185 174.222 97.2684 185.36 93.0722C196.498 88.8759 208.59 86.7778 221.635 86.7778C234.68 86.7778 247.162 88.9599 258.3 93.282C269.438 97.6041 279.059 103.689 287.207 111.41C295.354 119.173 301.682 128.446 306.146 139.231C310.61 150.015 312.863 161.722 312.863 174.353V280.056H259.903V174.731C259.903 163.694 256.436 154.799 249.502 148.127C242.568 141.413 233.25 138.056 221.592 138.056C209.933 138.056 200.529 141.413 193.465 148.127C186.4 154.84 182.89 163.694 182.89 174.731V280.056H129.93V174.731C129.93 163.694 126.463 154.799 119.529 148.127C112.594 141.413 103.277 138.056 91.6183 138.056H91.6617Z" fill="#E7E7E7"/>
<path d="M380.082 0C389.573 0 397.417 2.97931 403.485 8.89598C409.596 14.8126 412.673 22.3658 412.673 31.5975C412.673 40.8292 409.596 48.3824 403.485 54.2991C397.374 60.2157 389.573 63.1531 380.082 63.1531C370.591 63.1531 362.746 60.2157 356.635 54.2991C350.525 48.3824 347.491 40.8292 347.491 31.5975C347.491 22.3658 350.568 14.8126 356.635 8.89598C362.746 2.97931 370.547 0 380.082 0ZM353.602 90.7222H406.562V280.056H353.602V90.7222Z" fill="#E7E7E7"/>
<path d="M538.962 138.056C527.26 138.056 517.899 141.413 510.835 148.127C503.771 154.84 500.26 163.694 500.26 174.731V280.056H447.3V174.353C447.3 161.722 449.597 150.015 454.235 139.231C458.828 128.446 465.243 119.173 473.39 111.41C481.538 103.647 491.159 97.6041 502.297 93.282C513.435 88.9599 525.657 86.7778 538.962 86.7778C552.267 86.7778 564.099 88.8759 575.237 93.0722C586.375 97.2684 595.866 103.185 603.754 110.822C611.901 103.185 621.523 97.2684 632.661 93.0722C643.799 88.8759 655.89 86.7778 668.935 86.7778C681.98 86.7778 694.462 88.9599 705.6 93.282C716.738 97.6041 726.359 103.689 734.507 111.41C742.655 119.173 748.982 128.446 753.446 139.231C757.91 150.015 760.164 161.722 760.164 174.353V280.056H707.203V174.731C707.203 163.694 703.736 154.799 696.802 148.127C689.868 141.413 680.55 138.056 668.892 138.056C657.234 138.056 647.829 141.413 640.765 148.127C633.701 154.84 630.19 163.694 630.19 174.731V280.056H577.23V174.731C577.23 163.694 573.763 154.799 566.829 148.127C559.895 141.413 550.577 138.056 538.919 138.056H538.962Z" fill="#E7E7E7"/>
<path d="M792.754 185.389C792.754 171.458 795.398 158.491 800.685 146.532C805.973 134.573 813.167 124.124 822.268 115.186C831.369 106.248 842.161 99.2826 854.642 94.2891C867.124 89.2956 880.429 86.7778 894.557 86.7778C908.686 86.7778 922.338 89.2956 934.689 94.2891C947.041 99.2826 957.832 106.248 967.063 115.186C976.294 124.124 983.489 134.573 988.646 146.532C993.803 158.491 996.404 171.458 996.404 185.389C996.404 199.32 993.803 211.951 988.646 224.036C983.489 236.121 976.294 246.57 967.063 255.382C957.832 264.194 947.041 271.16 934.689 276.279C922.338 281.398 908.946 283.958 894.557 283.958C880.169 283.958 867.124 281.398 854.642 276.279C842.161 271.16 831.369 264.194 822.268 255.382C813.167 246.57 805.973 236.121 800.685 224.036C795.398 211.951 792.754 199.069 792.754 185.389ZM845.714 185.389C845.714 191.977 846.928 198.145 849.398 203.936C851.825 209.727 855.292 214.762 859.8 219.127C864.264 223.449 869.508 226.806 875.488 229.197C881.469 231.547 887.84 232.764 894.644 232.764C901.448 232.764 908.209 231.589 914.19 229.197C920.171 226.848 925.328 223.491 929.662 219.127C933.996 214.804 937.42 209.727 939.847 203.936C942.273 198.145 943.53 191.977 943.53 185.389C943.53 171.709 938.893 160.421 929.662 151.484C920.431 142.546 908.729 138.056 894.644 138.056C887.84 138.056 881.469 139.231 875.488 141.622C869.508 143.972 864.307 147.287 859.8 151.484C855.336 155.68 851.869 160.673 849.398 166.464C846.971 172.255 845.714 178.549 845.714 185.389Z" fill="#E7E7E7"/>
<path d="M1190.39 159.75H1137.43C1137.43 152.113 1134.22 145.944 1127.85 141.203C1121.48 136.461 1112.99 134.111 1102.37 134.111C1093.96 134.111 1087.11 135.706 1081.78 138.853C1076.49 142 1073.85 146.07 1073.85 151.064C1073.85 156.309 1077.06 161.051 1083.43 165.247C1089.8 169.443 1097.73 173.849 1107.26 178.465C1116.76 183.081 1127.16 188.116 1138.43 193.655C1149.69 199.194 1160.09 205.825 1169.59 213.588C1179.08 221.351 1187.05 230.624 1193.42 241.408C1199.79 252.193 1203 265.075 1203 280.056H1150.04C1150.04 270.572 1146.83 262.641 1140.46 256.179C1134.09 249.717 1126.12 243.8 1116.63 238.429C1107.13 233.058 1096.73 227.855 1085.47 222.861C1074.2 217.868 1063.8 212.161 1054.3 205.699C1044.81 199.236 1036.84 191.683 1030.47 182.997C1024.1 174.311 1020.89 163.653 1020.89 151.064C1020.89 141.874 1022.97 133.314 1027.22 125.425C1031.42 117.536 1037.27 110.696 1044.73 104.905C1052.18 99.1147 1061.02 94.6667 1071.21 91.4776C1081.39 88.2884 1092.62 86.7358 1104.79 86.7358C1116.97 86.7358 1129.15 88.4983 1139.64 92.065C1150.08 95.6318 1159.05 100.625 1166.51 107.046C1173.96 113.508 1179.81 121.187 1184.02 130.125C1188.22 139.063 1190.35 148.924 1190.35 159.708L1190.39 159.75ZM1051.05 224.833C1059.72 224.833 1067.09 227.729 1073.07 233.52C1079.05 239.31 1082.04 246.402 1082.04 254.836C1082.04 263.271 1079.05 270.236 1073.07 275.733C1067.09 281.272 1059.77 284 1051.05 284C1042.34 284 1035.15 281.231 1029.47 275.733C1023.75 270.194 1020.93 263.229 1020.93 254.836C1020.93 246.444 1023.79 239.31 1029.47 233.52C1035.19 227.729 1042.39 224.833 1051.05 224.833Z" fill="#E7E7E7"/>
</g>
<defs>
<clipPath id="clip0_78_2046">
<rect width="1203" height="284" fill="white"/>
</clipPath>
</defs>
</svg>
