<svg width="1064" height="259" viewBox="0 0 1064 259" fill="none" xmlns="http://www.w3.org/2000/svg">
<g clip-path="url(#clip0_78_2045)">
<path d="M81.0707 125.903C70.7212 125.903 62.4417 128.964 56.1937 135.087C49.9457 141.21 46.8408 149.285 46.8408 159.349V255.403H0V159.005C0 147.486 2.03156 136.809 6.13301 126.974C10.1961 117.139 15.8692 108.682 23.0754 101.602C30.2817 94.5228 38.7913 89.0121 48.6424 85.0705C58.4936 81.1289 69.303 79.1389 81.0707 79.1389C92.8384 79.1389 103.303 81.0523 113.154 84.8792C123.005 88.706 131.4 94.1018 138.376 101.067C145.582 94.1018 154.092 88.706 163.943 84.8792C173.794 81.0523 184.489 79.1389 196.026 79.1389C207.564 79.1389 218.603 81.1289 228.455 85.0705C238.306 89.0121 246.815 94.561 254.021 101.602C261.228 108.682 266.824 117.139 270.772 126.974C274.72 136.809 276.714 147.486 276.714 159.005V255.403H229.873V159.349C229.873 149.285 226.806 141.172 220.673 135.087C214.54 128.964 206.299 125.903 195.988 125.903C185.677 125.903 177.359 128.964 171.111 135.087C164.863 141.21 161.758 149.285 161.758 159.349V255.403H114.917V159.349C114.917 149.285 111.851 141.172 105.718 135.087C99.5847 128.964 91.3435 125.903 81.0324 125.903H81.0707Z" fill="black"/>
<path d="M336.165 0C344.56 0 351.498 2.71705 356.864 8.11288C362.269 13.5087 364.991 20.397 364.991 28.816C364.991 37.2351 362.269 44.1234 356.864 49.5192C351.46 54.915 344.56 57.5938 336.165 57.5938C327.771 57.5938 320.833 54.915 315.428 49.5192C310.024 44.1234 307.34 37.2351 307.34 28.816C307.34 20.397 310.062 13.5087 315.428 8.11288C320.833 2.71705 327.733 0 336.165 0ZM312.745 82.7361H359.586V255.403H312.745V82.7361Z" fill="black"/>
<path d="M476.688 125.903C466.338 125.903 458.059 128.964 451.811 135.087C445.563 141.21 442.458 149.285 442.458 159.349V255.403H395.617V159.005C395.617 147.486 397.649 136.809 401.75 126.974C405.813 117.139 411.486 108.682 418.693 101.602C425.899 94.5228 434.408 89.0121 444.26 85.0705C454.111 81.1289 464.92 79.1389 476.688 79.1389C488.456 79.1389 498.92 81.0523 508.771 84.8792C518.622 88.706 527.017 94.1018 533.993 101.067C541.199 94.1018 549.709 88.706 559.56 84.8792C569.411 81.0523 580.106 79.1389 591.643 79.1389C603.181 79.1389 614.221 81.1289 624.072 85.0705C633.923 89.0121 642.432 94.561 649.639 101.602C656.845 108.682 662.441 117.139 666.389 126.974C670.338 136.809 672.331 147.486 672.331 159.005V255.403H625.49V159.349C625.49 149.285 622.423 141.172 616.29 135.087C610.157 128.964 601.916 125.903 591.605 125.903C581.294 125.903 572.976 128.964 566.728 135.087C560.48 141.21 557.375 149.285 557.375 159.349V255.403H510.534V159.349C510.534 149.285 507.468 141.172 501.335 135.087C495.202 128.964 486.961 125.903 476.65 125.903H476.688Z" fill="black"/>
<path d="M701.156 169.069C701.156 156.364 703.494 144.539 708.171 133.633C712.847 122.727 719.21 113.198 727.26 105.047C735.309 96.8954 744.854 90.5429 755.893 85.9889C766.933 81.435 778.7 79.1389 791.196 79.1389C803.692 79.1389 815.767 81.435 826.691 85.9889C837.615 90.5429 847.16 96.8954 855.324 105.047C863.489 113.198 869.852 122.727 874.413 133.633C878.975 144.539 881.275 156.364 881.275 169.069C881.275 181.775 878.975 193.293 874.413 204.315C869.852 215.336 863.489 224.865 855.324 232.901C847.16 240.937 837.615 247.29 826.691 251.959C815.767 256.627 803.922 258.962 791.196 258.962C778.47 258.962 766.933 256.627 755.893 251.959C744.854 247.29 735.309 240.937 727.26 232.901C719.21 224.865 712.847 215.336 708.171 204.315C703.494 193.293 701.156 181.545 701.156 169.069ZM747.997 169.069C747.997 175.078 749.07 180.703 751.255 185.984C753.402 191.265 756.468 195.857 760.455 199.837C764.403 203.779 769.041 206.84 774.33 209.022C779.62 211.165 785.255 212.274 791.273 212.274C797.291 212.274 803.271 211.203 808.56 209.022C813.85 206.879 818.411 203.817 822.245 199.837C826.078 195.896 829.106 191.265 831.252 185.984C833.399 180.703 834.511 175.078 834.511 169.069C834.511 156.594 830.409 146.3 822.245 138.149C814.08 129.998 803.731 125.903 791.273 125.903C785.255 125.903 779.62 126.974 774.33 129.156C769.041 131.299 764.441 134.322 760.455 138.149C756.506 141.975 753.44 146.529 751.255 151.81C749.108 157.091 747.997 162.832 747.997 169.069Z" fill="black"/>
<path d="M1052.85 145.688H1006.01C1006.01 138.723 1003.17 133.097 997.534 128.773C991.899 124.449 984.386 122.306 974.995 122.306C967.559 122.306 961.502 123.76 956.788 126.63C952.111 129.5 949.773 133.212 949.773 137.766C949.773 142.55 952.61 146.874 958.244 150.701C963.879 154.528 970.894 158.546 979.326 162.755C987.721 166.965 996.92 171.557 1006.89 176.608C1016.85 181.66 1026.05 187.706 1034.45 194.786C1042.84 201.865 1049.89 210.323 1055.53 220.158C1061.16 229.993 1064 241.741 1064 255.403H1017.16C1017.16 246.754 1014.32 239.521 1008.69 233.628C1003.05 227.735 996 222.339 987.606 217.441C979.211 212.542 970.012 207.797 960.046 203.243C950.08 198.689 940.88 193.485 932.486 187.591C924.091 181.698 917.038 174.81 911.403 166.888C905.769 158.967 902.932 149.246 902.932 137.766C902.932 129.385 904.772 121.578 908.529 114.384C912.247 107.19 917.421 100.952 924.014 95.6708C930.607 90.3898 938.427 86.3334 947.435 83.425C956.443 80.5166 966.37 79.1006 977.142 79.1006C987.913 79.1006 998.684 80.7079 1007.96 83.9607C1017.2 87.2135 1025.13 91.7675 1031.73 97.6225C1038.32 103.516 1043.49 110.519 1047.21 118.67C1050.93 126.821 1052.81 135.814 1052.81 145.649L1052.85 145.688ZM929.611 205.042C937.277 205.042 943.793 207.682 949.083 212.963C954.373 218.244 957.018 224.712 957.018 232.404C957.018 240.095 954.373 246.448 949.083 251.461C943.793 256.513 937.315 259 929.611 259C921.906 259 915.543 256.474 910.522 251.461C905.462 246.41 902.97 240.057 902.97 232.404C902.97 224.75 905.5 218.244 910.522 212.963C915.581 207.682 921.944 205.042 929.611 205.042Z" fill="black"/>
</g>
<defs>
<clipPath id="clip0_78_2045">
<rect width="1064" height="259" fill="white"/>
</clipPath>
</defs>
</svg>
