<svg width="40" height="40" viewBox="0 0 40 40" fill="none" xmlns="http://www.w3.org/2000/svg">
<path d="M38.5824 38.2402H1.41764C0.635101 38.2402 0 37.6051 0 36.8226V3.1774C0 2.39487 0.635101 1.75977 1.41764 1.75977C2.20017 1.75977 2.83527 2.39487 2.83527 3.1774V35.405H38.5824C39.3649 35.405 40 36.0401 40 36.8226C40 37.6051 39.3649 38.2402 38.5824 38.2402ZM6.21113 17.7205C6.57594 17.4539 7.04659 17.3764 7.47755 17.5144L16.5277 20.3969L19.6125 11.3316C19.7524 10.9196 20.0737 10.5964 20.482 10.4508C20.8922 10.3053 21.3458 10.3582 21.7125 10.5907L27.0201 13.9495L33.7435 5.33977C34.1159 4.86344 34.751 4.67442 35.3218 4.871C35.8945 5.06758 36.2782 5.60628 36.2782 6.21114V31.5131C36.2782 32.2956 35.6431 32.9307 34.8606 32.9307H7.04848C6.26595 32.9307 5.63085 32.2956 5.63085 31.5131V18.8621C5.63085 18.4104 5.84633 17.9851 6.21113 17.7167V17.7205Z" fill="#FFF9F9"/>
</svg>
