<svg width="176" height="176" viewBox="0 0 176 176" fill="none" xmlns="http://www.w3.org/2000/svg">
<circle cx="87.8643" cy="87.8643" r="87.8643" fill="url(#paint0_linear_283_50)"/>
<path d="M127.546 87.1357C127.546 84.3748 127.108 81.9554 126.339 79.7505C125.57 77.5457 124.362 75.6726 122.931 74.0141C121.393 72.4726 119.631 71.2532 117.654 70.3751C115.561 69.4971 113.361 69.0483 110.946 69.0483C108.531 69.0483 106.321 69.4873 104.345 70.3751C102.252 71.3702 100.49 72.58 99.0681 74.1214C97.6369 75.7799 96.4296 77.653 95.6604 79.8578C94.7842 82.0627 94.3363 84.4919 94.3363 87.1357V120.208H81.2413V87.1357C81.2413 84.4919 80.8032 82.0627 80.0341 79.8578C79.2649 77.653 78.0577 75.7799 76.6265 74.1214C75.1953 72.4726 73.433 71.2532 71.4566 70.3751C69.3634 69.4971 67.163 69.0483 64.7485 69.0483C62.3339 69.0483 60.1239 69.4873 58.1474 70.3751C56.0542 71.2532 54.292 72.4726 52.8705 74.0141C51.3322 75.6628 50.1152 77.5457 49.3461 79.7505C48.5769 81.9554 48.1388 84.3846 48.1388 87.1357V120.208H34.3525V86.4723C34.3525 82.17 35.1217 78.1994 36.5529 74.5702C37.9841 70.9312 40.0773 67.8484 42.7158 65.1948C45.2472 62.5509 48.3238 60.4534 51.9553 59.0193C55.4798 57.5852 59.3255 56.8145 63.6191 56.8145C69.0129 56.8145 73.7446 58.0242 78.0285 60.3461C82.2052 62.7753 85.5057 66.0825 87.8229 70.2678C90.1304 66.0825 93.4309 62.7753 97.6174 60.3461C101.794 58.0339 106.643 56.8145 112.027 56.8145C116.203 56.8145 120.059 57.5852 123.691 59.0193C127.322 60.4534 130.399 62.5509 133.047 65.1948C135.578 67.8386 137.671 70.9312 139.103 74.5702C140.534 78.2091 141.303 82.1797 141.303 86.4723V120.208H127.546V87.1357Z" fill="white"/>
<defs>
<linearGradient id="paint0_linear_283_50" x1="87.8643" y1="0" x2="87.8643" y2="175.729" gradientUnits="userSpaceOnUse">
<stop stop-color="#8D5CFF"/>
<stop offset="1" stop-color="#7D39EC"/>
</linearGradient>
</defs>
</svg>
