<svg width="40" height="40" viewBox="0 0 40 40" fill="none" xmlns="http://www.w3.org/2000/svg">
<path d="M37.3156 2.98913C37.3013 2.92004 37.2677 2.85644 37.2185 2.8058C37.1694 2.75515 37.1069 2.71956 37.0383 2.7032C32.4625 1.58445 21.8898 5.57117 16.1617 11.2969C15.14 12.3103 14.2086 13.4109 13.3781 14.586C11.6117 14.4298 9.84529 14.5602 8.33982 15.2165C4.09216 17.086 2.85545 21.9641 2.51091 24.0626C2.49137 24.1774 2.49874 24.2953 2.53245 24.4068C2.56615 24.5183 2.62527 24.6205 2.70516 24.7053C2.78504 24.7901 2.88352 24.8552 2.99283 24.8955C3.10214 24.9358 3.21932 24.9502 3.33513 24.9376L10.1562 24.1852C10.1611 24.6995 10.1921 25.2132 10.2492 25.7243C10.2835 26.0792 10.4411 26.4109 10.6945 26.6618L13.3359 29.2969C13.587 29.55 13.9186 29.7075 14.2734 29.7423C14.7817 29.7991 15.2925 29.8301 15.8039 29.8352L15.0554 36.6477C15.043 36.7635 15.0575 36.8806 15.0978 36.9898C15.1382 37.0991 15.2033 37.1975 15.2881 37.2773C15.3728 37.3572 15.475 37.4163 15.5864 37.4501C15.6979 37.4838 15.8156 37.4913 15.9304 37.4719C18.025 37.136 22.9117 35.8993 24.7703 31.6516C25.4265 30.1462 25.5609 28.3884 25.4094 26.6305C26.5873 25.7999 27.6907 24.8683 28.707 23.8462C34.4531 18.129 38.4172 7.79226 37.3156 2.98913ZM22.9742 17.0259C22.4495 16.5015 22.0921 15.8333 21.9472 15.1058C21.8023 14.3783 21.8764 13.6242 22.1602 12.9388C22.444 12.2535 22.9246 11.6677 23.5413 11.2555C24.1581 10.8433 24.8832 10.6233 25.625 10.6233C26.3668 10.6233 27.0919 10.8433 27.7086 11.2555C28.3254 11.6677 28.806 12.2535 29.0898 12.9388C29.3735 13.6242 29.4476 14.3783 29.3027 15.1058C29.1578 15.8333 28.8005 16.5015 28.2758 17.0259C27.9278 17.3743 27.5146 17.6507 27.0598 17.8393C26.6049 18.0279 26.1174 18.125 25.625 18.125C25.1326 18.125 24.645 18.0279 24.1902 17.8393C23.7353 17.6507 23.3221 17.3743 22.9742 17.0259Z" fill="#FFF9F9"/>
<path d="M13.1562 31.2055C12.7281 31.6344 12.0414 31.8016 11.2148 31.9445C9.35781 32.2609 7.71797 30.6563 8.05156 28.7789C8.17891 28.0672 8.55547 27.0695 8.78984 26.8352C8.84107 26.7849 8.87517 26.7198 8.8873 26.6491C8.89942 26.5784 8.88895 26.5056 8.85739 26.4412C8.82582 26.3768 8.77475 26.3239 8.71144 26.2902C8.64812 26.2564 8.57578 26.2434 8.50469 26.2531C7.46622 26.3802 6.50011 26.851 5.76016 27.5906C3.92344 29.4289 3.75 36.25 3.75 36.25C3.75 36.25 10.575 36.0766 12.4117 34.2383C13.1536 33.4989 13.6251 32.5313 13.75 31.4914C13.7789 31.1648 13.3812 30.9703 13.1562 31.2055Z" fill="#FFF9F9"/>
</svg>
