<svg width="40" height="40" viewBox="0 0 40 40" fill="none" xmlns="http://www.w3.org/2000/svg">
<g clip-path="url(#clip0_78_2207)">
<path d="M38.7161 17.9459H38.6319L33.9868 9.90021H36.4284C37.1376 9.90021 37.7123 9.32555 37.7123 8.61633V6.7903C37.7123 6.08109 37.1376 5.50642 36.4284 5.50642H21.2839V1.94013C21.2839 1.23092 20.7092 0.65625 20 0.65625C19.291 0.65625 18.7161 1.23092 18.7161 1.94013V5.50642H3.57159C2.86255 5.50642 2.28771 6.08109 2.28771 6.7903V8.61633C2.28771 9.32555 2.86255 9.90021 3.57159 9.90021H6.01337L1.36828 17.9459H1.28388C0.574838 17.9459 0 18.5206 0 19.2298C0 23.5876 3.54523 27.1328 7.90308 27.1328C12.2609 27.1328 15.8062 23.5876 15.8062 19.2298C15.8062 18.5206 15.2313 17.9459 14.5223 17.9459H14.438L9.79295 9.90021H18.7165V33.4667H14.5224C12.902 33.4667 11.5837 34.7848 11.5837 36.4052C11.5837 38.0257 12.902 39.3439 14.5224 39.3439H25.4782C27.0987 39.3439 28.417 38.0257 28.417 36.4052C28.417 34.7848 27.0987 33.4667 25.4782 33.4667H21.2842V9.90021H30.2077L25.5626 17.9459H25.4782C24.769 17.9459 24.1944 18.5206 24.1944 19.2298C24.1944 23.5876 27.7396 27.1328 32.0974 27.1328C36.4551 27.1328 40.0003 23.5876 40.0003 19.2298C40 18.5206 39.4253 17.9459 38.7161 17.9459ZM4.33319 17.9459L7.90308 11.7627L11.473 17.9459H4.33319ZM32.0971 11.7627L35.667 17.9459H28.5272L32.0971 11.7627Z" fill="#FFF9F9"/>
</g>
<defs>
<clipPath id="clip0_78_2207">
<rect width="40" height="40" fill="white"/>
</clipPath>
</defs>
</svg>
